<?xml version="1.0" standalone="no"?>
<!DOCTYPE svg PUBLIC "-//W3C//DTD SVG 20010904//EN"
 "http://www.w3.org/TR/2001/REC-SVG-20010904/DTD/svg10.dtd">
<svg version="1.0" xmlns="http://www.w3.org/2000/svg"
 width="2232.000000pt" height="2232.000000pt" viewBox="0 0 2232.000000 2232.000000"
 preserveAspectRatio="xMidYMid meet">
<metadata>
Created by potrace 1.11, written by Peter Selinger 2001-2013
</metadata>
<g transform="translate(0.000000,2232.000000) scale(0.100000,-0.100000)"
fill="#000000" stroke="none">
<path d="M10110 21792 c-86 -44 -134 -89 -197 -183 -27 -40 -67 -133 -78 -179
-1 -8 -13 -55 -25 -105 -12 -49 -23 -97 -25 -105 -2 -8 -36 -145 -75 -305 -39
-159 -74 -299 -76 -310 -6 -32 -63 -265 -79 -325 -12 -44 -53 -216 -70 -290
-2 -8 -20 -80 -40 -160 -20 -80 -38 -156 -41 -170 -3 -14 -14 -61 -25 -105
-12 -44 -22 -87 -24 -95 -5 -23 -42 -176 -96 -395 -27 -110 -51 -209 -53 -220
-2 -11 -36 -150 -76 -310 -39 -159 -78 -319 -87 -355 -20 -86 -19 -81 -26
-110 -4 -14 -36 -146 -72 -295 -36 -148 -83 -342 -105 -430 -21 -88 -55 -227
-75 -310 -32 -130 -88 -360 -100 -405 -2 -8 -24 -100 -49 -205 -25 -104 -68
-282 -96 -395 -28 -113 -55 -223 -59 -245 -5 -22 -23 -94 -40 -160 -16 -66
-32 -131 -35 -145 -3 -14 -19 -81 -36 -150 -18 -69 -33 -132 -35 -140 -2 -8
-28 -116 -58 -240 -46 -190 -66 -273 -72 -300 -1 -3 -4 -14 -8 -25 -3 -11 -8
-31 -11 -45 -2 -14 -14 -63 -26 -110 -12 -47 -23 -92 -25 -100 -14 -63 -67
-282 -75 -310 -5 -19 -48 -192 -95 -385 -46 -192 -123 -507 -170 -700 -47
-192 -85 -367 -85 -388 0 -35 -2 -37 -25 -31 -35 9 -211 9 -270 0 -86 -12
-148 -30 -230 -66 -22 -10 -157 -68 -300 -130 -143 -61 -288 -125 -323 -141
-35 -16 -65 -29 -67 -29 -3 0 -28 -11 -57 -24 -29 -14 -123 -55 -208 -92 -85
-36 -227 -98 -315 -136 -88 -38 -223 -97 -300 -130 -77 -33 -159 -69 -183 -80
-24 -10 -182 -79 -352 -153 -170 -74 -328 -143 -352 -153 -48 -22 -292 -128
-648 -282 -129 -55 -255 -110 -280 -122 -25 -11 -144 -63 -265 -115 -121 -53
-242 -105 -270 -118 -27 -12 -111 -48 -185 -80 -74 -32 -157 -68 -185 -80 -54
-25 -927 -405 -1245 -542 -107 -46 -208 -90 -225 -98 -16 -7 -66 -29 -110 -48
-503 -218 -675 -293 -750 -326 -22 -10 -105 -46 -184 -81 -214 -94 -304 -163
-346 -263 -28 -67 -10 -152 41 -199 11 -9 604 -456 1319 -993 715 -536 1307
-981 1315 -988 9 -7 87 -66 175 -131 88 -66 165 -124 170 -128 6 -5 53 -41
105 -79 52 -39 102 -76 112 -84 9 -7 88 -67 175 -132 87 -65 165 -123 173
-130 31 -25 262 -199 290 -218 31 -21 1225 -917 1250 -938 8 -7 429 -323 935
-703 824 -619 1785 -1341 1857 -1396 15 -11 206 -155 425 -318 219 -164 403
-302 408 -307 6 -5 300 -226 655 -493 355 -266 785 -589 955 -717 327 -245
401 -290 555 -337 219 -66 470 -54 674 31 100 42 176 98 382 283 17 15 125
110 240 210 115 100 225 197 244 214 19 17 71 62 115 100 44 38 82 72 85 75 4
5 82 72 174 151 16 14 37 32 46 40 9 8 47 42 85 75 39 33 72 62 75 65 3 3 41
36 85 75 44 38 82 72 85 75 3 3 34 30 70 60 36 30 72 62 80 70 8 9 83 74 165
145 83 70 155 133 160 139 6 6 60 54 120 106 61 52 115 99 121 105 6 5 39 35
74 65 35 30 141 123 235 205 94 83 200 175 235 205 35 30 89 78 120 105 31 28
100 88 154 135 55 47 104 90 110 96 6 5 45 39 86 74 71 61 113 98 164 145 12
11 46 40 75 65 88 75 95 80 131 113 19 18 69 61 110 97 69 60 126 110 154 135
6 6 29 26 52 45 22 19 71 62 109 96 39 34 165 143 280 244 116 101 212 186
215 189 3 3 52 46 110 96 58 49 107 92 110 95 3 3 97 86 210 184 113 98 234
204 270 236 36 31 121 106 190 166 133 117 186 163 204 179 6 6 205 179 441
385 237 206 435 379 441 385 12 10 55 48 266 234 70 61 134 123 143 139 14 23
31 30 104 48 121 30 175 59 246 129 105 104 109 115 270 700 51 187 114 417
140 510 26 94 55 199 65 235 9 36 56 207 104 380 48 173 98 356 112 405 13 50
67 245 119 435 53 190 98 354 100 364 3 10 20 73 38 140 19 67 53 189 76 271
22 83 72 265 111 405 39 140 73 263 75 273 2 10 22 82 44 160 22 78 65 232 95
342 30 110 94 342 142 515 47 173 89 324 91 335 3 11 28 100 55 198 27 99 51
186 53 195 2 10 38 141 80 292 42 151 96 347 120 435 25 88 72 259 105 380 34
121 63 227 65 236 2 9 28 106 59 215 55 196 66 237 110 404 13 47 58 211 100
365 43 154 80 287 82 295 2 8 60 220 129 470 121 436 158 570 265 960 26 96
94 342 150 545 56 204 133 483 170 620 38 138 92 333 120 435 102 369 99 352
99 471 0 235 -89 380 -297 487 -98 50 -142 67 -197 76 -16 3 -41 8 -55 11 -14
3 -41 7 -60 9 -19 3 -60 9 -90 15 -30 5 -71 12 -90 16 -19 3 -62 10 -95 16
-33 6 -69 12 -80 14 -52 7 -247 40 -295 50 -13 2 -40 7 -60 10 -19 3 -57 9
-85 14 -154 27 -544 93 -565 96 -35 6 -140 24 -170 30 -61 12 -77 15 -115 20
-22 3 -92 15 -155 26 -63 11 -131 22 -150 25 -19 2 -45 7 -58 10 -31 6 -367
64 -412 70 -19 3 -42 6 -50 8 -19 4 -61 11 -175 31 -49 8 -99 17 -110 19 -11
2 -40 7 -65 11 -66 11 -64 11 -323 54 -131 23 -250 43 -265 46 -15 3 -81 14
-147 25 -66 11 -131 22 -145 25 -41 7 -212 36 -245 41 -16 2 -41 6 -55 9 -14
3 -40 7 -57 10 -71 11 -100 16 -158 27 -33 6 -69 12 -80 13 -11 2 -177 30
-370 64 -411 70 -411 70 -450 76 -16 3 -41 7 -55 10 -14 3 -52 9 -85 14 -33 6
-100 17 -150 26 -49 9 -101 18 -115 20 -14 2 -117 19 -230 38 -113 20 -221 38
-240 41 -19 3 -45 8 -56 10 -12 2 -39 7 -60 11 -22 3 -88 14 -149 25 -60 11
-128 22 -150 25 -22 4 -141 24 -265 45 -124 22 -243 42 -265 45 -38 5 -55 8
-115 20 -14 3 -54 10 -90 15 -36 6 -76 13 -90 16 -14 2 -65 11 -115 19 -49 8
-101 17 -115 20 -72 13 -329 57 -355 60 -16 3 -41 7 -55 10 -13 2 -40 7 -60
10 -20 3 -45 7 -55 9 -11 2 -40 7 -65 11 -25 4 -54 9 -65 11 -23 5 -247 43
-285 49 -14 2 -92 16 -175 30 -82 14 -165 28 -184 31 -36 6 -61 11 -101 19
-14 3 -41 7 -60 9 -28 4 -245 41 -360 61 -14 3 -68 12 -120 20 -142 23 -154
25 -170 30 -8 2 -35 7 -60 10 -25 3 -52 8 -60 10 -8 2 -33 7 -55 10 -40 5 -63
9 -115 20 -14 2 -41 7 -60 10 -19 3 -46 7 -60 10 -14 3 -38 7 -55 9 -16 3 -73
12 -125 21 -52 9 -108 18 -125 21 -42 6 -145 24 -175 30 -23 4 -234 40 -290
49 -22 4 -100 17 -230 40 -89 15 -148 25 -180 30 -48 8 -101 17 -125 22 -11 2
-38 6 -60 9 -22 3 -53 9 -70 13 -59 15 -149 12 -185 -7z m385 -717 c99 -18
254 -48 345 -66 91 -17 179 -33 195 -36 17 -2 73 -13 125 -23 52 -11 113 -22
135 -25 22 -4 47 -8 56 -11 9 -2 52 -11 95 -19 43 -7 140 -25 214 -40 74 -14
149 -28 165 -31 17 -2 37 -7 46 -10 10 -2 31 -6 48 -9 17 -2 54 -8 83 -14 29
-6 68 -13 87 -16 19 -3 37 -7 40 -9 3 -2 29 -7 56 -10 28 -4 66 -11 85 -16 19
-5 52 -11 73 -14 21 -4 71 -13 110 -21 40 -8 110 -21 157 -30 47 -9 144 -27
215 -41 72 -13 144 -27 160 -30 17 -3 111 -21 210 -40 99 -19 194 -37 210 -40
17 -3 41 -7 55 -10 14 -3 61 -12 105 -20 44 -8 91 -17 105 -20 14 -2 36 -7 50
-10 14 -3 36 -8 50 -10 53 -8 86 -14 110 -19 50 -10 396 -76 425 -81 17 -2 37
-7 45 -9 8 -2 35 -7 60 -10 24 -4 47 -8 50 -10 4 -2 29 -7 56 -11 27 -3 51 -8
54 -9 4 -3 153 -31 270 -51 14 -3 32 -7 40 -9 8 -2 31 -7 50 -10 19 -3 55 -9
80 -15 25 -5 97 -18 160 -30 63 -12 135 -25 160 -30 25 -6 56 -12 70 -14 14
-2 99 -18 190 -36 343 -65 376 -71 425 -80 28 -5 84 -15 125 -23 41 -9 93 -18
115 -22 48 -8 32 -5 285 -54 113 -22 216 -42 230 -44 62 -12 207 -40 225 -43
11 -2 58 -11 105 -20 47 -8 117 -21 155 -29 39 -8 81 -16 95 -18 26 -5 294
-55 331 -62 11 -2 28 -6 37 -9 9 -3 39 -7 66 -11 27 -3 52 -8 55 -10 3 -1 22
-6 41 -9 19 -3 46 -8 60 -11 14 -3 50 -9 80 -15 30 -6 66 -12 80 -15 14 -3 52
-10 85 -16 101 -19 108 -20 185 -35 41 -9 89 -17 105 -20 17 -3 59 -11 95 -19
36 -7 81 -16 100 -19 19 -3 85 -15 145 -27 61 -11 119 -22 130 -24 11 -2 31
-5 45 -8 32 -6 249 -48 275 -53 11 -2 31 -6 45 -9 14 -2 38 -7 54 -9 16 -3 52
-10 80 -15 28 -6 64 -13 80 -15 16 -3 52 -10 80 -15 28 -6 65 -13 81 -16 122
-24 194 -37 220 -41 17 -3 46 -9 65 -14 19 -5 55 -12 80 -15 25 -3 61 -10 80
-15 19 -5 53 -11 75 -15 22 -3 96 -17 165 -31 69 -13 141 -27 160 -30 19 -2
55 -9 80 -14 25 -5 57 -12 73 -14 15 -3 35 -7 45 -10 9 -3 33 -7 52 -10 30 -4
110 -19 220 -40 14 -3 74 -14 135 -25 141 -27 147 -29 141 -49 -2 -9 -11 -42
-20 -72 -14 -50 -152 -554 -161 -590 -6 -24 -29 -110 -85 -313 -28 -103 -53
-195 -55 -205 -6 -24 -39 -145 -80 -292 -42 -150 -495 -1809 -500 -1830 -7
-30 -416 -1529 -446 -1635 -17 -60 -33 -117 -34 -125 -9 -37 -247 -915 -271
-995 -15 -53 -203 -739 -209 -765 -2 -8 -38 -141 -80 -295 -42 -154 -82 -302
-90 -330 -7 -27 -61 -225 -120 -440 -58 -214 -112 -412 -120 -440 -7 -27 -25
-93 -40 -145 -14 -52 -28 -102 -30 -110 -2 -8 -112 -413 -245 -900 -133 -487
-248 -910 -256 -940 -66 -248 -127 -466 -133 -471 -5 -6 -313 129 -495 215
-17 8 -51 23 -76 34 -25 11 -71 31 -102 46 -32 14 -82 37 -110 50 -377 170
-650 293 -1043 471 -258 117 -562 254 -675 305 -113 51 -232 104 -265 120 -33
15 -82 37 -110 50 -27 13 -75 34 -105 47 -30 14 -73 33 -95 43 -248 113 -617
280 -685 310 -47 21 -111 50 -143 64 -89 41 -573 260 -732 331 -77 35 -171 77
-210 95 -38 18 -108 49 -155 70 -47 21 -116 52 -155 70 -38 18 -162 74 -275
125 -739 334 -1064 481 -1128 511 -41 19 -75 34 -77 34 -2 0 -46 20 -99 45
-53 25 -99 45 -101 45 -2 0 -36 15 -77 34 -62 29 -121 55 -333 151 -16 7 -84
38 -150 68 -66 30 -142 65 -170 77 -27 12 -88 40 -133 61 -46 22 -86 39 -87
39 -2 0 -43 18 -92 41 -111 52 -117 54 -423 192 -264 119 -754 340 -850 384
-30 14 -93 42 -140 63 -47 21 -116 52 -155 70 -38 18 -185 84 -325 147 -140
64 -274 124 -297 135 -23 10 -40 24 -38 31 4 13 33 130 39 162 3 11 32 133 66
270 34 138 64 257 66 265 1 8 15 62 29 120 15 58 28 112 30 120 5 24 82 340
131 537 25 100 47 190 49 200 2 10 27 112 55 226 28 115 53 216 55 225 2 10
13 55 25 102 12 47 23 92 25 100 2 8 13 56 25 105 12 50 24 98 26 108 2 10 6
27 9 37 3 10 8 27 10 37 2 10 24 101 50 203 82 334 178 727 190 780 2 8 13 53
25 100 12 47 23 92 25 100 2 8 29 119 60 245 31 127 58 240 61 253 2 12 18 78
35 145 17 67 32 129 34 137 2 8 13 53 25 100 12 47 23 92 25 100 3 15 53 219
140 575 26 105 48 197 50 205 2 8 17 71 35 140 17 69 33 135 36 146 2 12 33
138 68 281 36 143 67 271 70 284 2 13 47 197 100 409 52 212 97 396 100 410 2
14 34 143 70 286 36 144 70 283 76 310 7 27 13 56 15 64 14 53 67 268 70 283
2 10 6 26 9 35 3 9 7 28 10 42 8 38 36 153 41 167 3 8 15 11 32 8 15 -3 109
-21 208 -40z m-3006 -8956 c179 -85 291 -141 291 -147 -1 -18 -20 -32 -84 -62
-117 -56 -126 -54 -322 43 -95 47 -175 90 -178 95 -9 14 22 37 99 71 88 38
112 38 194 0z m-239 -218 c80 -41 148 -78 152 -84 18 -29 -17 -52 -222 -144
-30 -14 -71 -32 -90 -41 -20 -10 -59 -17 -91 -17 -49 1 -72 9 -200 74 -79 40
-150 79 -158 86 -29 28 10 57 170 127 194 84 175 78 239 75 45 -3 80 -16 200
-76z m852 -79 c90 -43 169 -86 175 -94 17 -20 -1 -35 -95 -77 -56 -25 -83 -32
-111 -28 -33 4 -352 156 -376 178 -18 18 9 40 90 75 60 25 89 33 117 29 21 -3
111 -40 200 -83z m-1283 -248 c183 -94 293 -156 297 -167 9 -28 -14 -47 -116
-94 -52 -25 -123 -58 -157 -74 -116 -55 -177 -54 -286 5 -63 34 -162 86 -362
191 -196 103 -196 104 30 205 77 34 156 68 175 75 76 28 109 17 419 -141z
m989 50 c84 -42 156 -83 159 -91 12 -30 -15 -48 -182 -128 -224 -105 -223
-105 -429 0 -162 82 -181 97 -165 126 7 14 76 54 109 64 3 0 46 21 95 45 112
54 169 70 220 65 22 -3 109 -39 193 -81z m812 -53 c90 -45 171 -88 180 -97 13
-14 13 -17 -5 -30 -41 -31 -147 -77 -183 -79 -29 -1 -78 18 -222 89 -122 60
-186 97 -188 109 -3 13 17 27 80 57 114 56 131 53 338 -49z m-2570 -169 c100
-52 151 -79 293 -156 79 -42 253 -135 289 -153 71 -37 54 -72 -60 -125 -48
-22 -125 -59 -172 -81 -76 -37 -93 -42 -160 -42 -71 1 -80 3 -155 46 -84 48
-150 84 -275 152 -41 22 -126 69 -189 104 -62 35 -116 63 -120 63 -3 0 -17 9
-30 19 -18 14 -22 24 -18 43 6 21 27 34 114 73 60 26 137 61 172 77 130 59
165 57 311 -20z m2328 -61 c163 -81 192 -104 169 -134 -11 -15 -259 -143 -325
-168 -15 -6 -50 -10 -79 -10 -45 0 -72 10 -210 81 -87 45 -162 85 -167 90 -14
14 3 60 27 69 12 5 60 28 107 51 260 129 260 129 478 21z m783 -34 c97 -47
180 -90 184 -96 11 -19 -11 -37 -89 -75 -44 -22 -88 -36 -111 -36 -26 0 -91
27 -226 92 -218 106 -223 112 -129 163 68 36 137 55 170 45 14 -4 104 -46 201
-93z m-1668 -79 c155 -79 162 -84 162 -113 0 -29 -6 -33 -169 -113 -132 -65
-181 -84 -227 -89 -58 -6 -61 -5 -202 67 -169 87 -197 105 -197 130 0 25 24
40 188 118 164 77 174 80 235 81 40 1 71 -11 210 -81z m-1978 -138 c240 -132
260 -144 263 -164 7 -35 2 -39 -292 -173 -77 -36 -110 -45 -151 -45 -61 0 -66
2 -285 127 -36 21 -90 52 -121 69 -98 55 -103 59 -95 90 5 21 19 33 64 53 31
13 71 31 87 39 222 102 228 104 295 101 61 -3 76 -9 235 -97z m4154 -30 c89
-44 164 -80 166 -80 2 0 20 -9 39 -21 49 -29 37 -47 -64 -97 -65 -33 -87 -39
-120 -36 -54 6 -420 188 -420 209 0 27 148 104 201 105 24 0 85 -25 198 -80z
m-688 -18 c90 -45 169 -90 176 -101 19 -31 -6 -51 -159 -129 -239 -122 -235
-122 -459 -11 -92 45 -172 91 -178 101 -26 42 -18 48 247 177 144 70 160 68
373 -37z m-917 -107 c149 -78 161 -86 164 -114 3 -29 0 -31 -169 -116 -147
-74 -182 -88 -234 -92 -64 -5 -55 -9 -353 147 -55 29 -67 51 -44 79 21 25 309
168 360 179 68 15 111 2 276 -83z m-1109 -13 c28 -14 62 -34 77 -44 14 -10 30
-18 36 -18 5 0 41 -19 81 -41 107 -62 99 -82 -64 -162 -321 -157 -289 -157
-567 -2 -155 86 -156 103 -5 174 56 26 133 63 171 81 116 56 182 59 271 12z
m-2110 -92 c147 -83 165 -96 165 -120 0 -27 -27 -45 -168 -109 -73 -33 -152
-70 -175 -81 -66 -32 -144 -37 -198 -12 -52 25 -143 77 -181 103 -14 10 -31
19 -36 19 -5 0 -24 13 -42 30 -52 49 -36 64 155 148 55 25 129 58 165 74 53
23 76 28 125 25 53 -3 75 -12 190 -77z m5427 -65 c159 -78 203 -104 203 -119
0 -14 -23 -32 -85 -64 -70 -37 -91 -43 -125 -39 -35 4 -387 170 -423 199 -22
19 -9 39 48 70 71 40 119 57 152 55 15 0 118 -46 230 -102z m-4191 12 c261
-141 270 -148 250 -186 -6 -10 -45 -36 -88 -56 -293 -142 -285 -139 -353 -139
-63 -1 -69 1 -205 78 -163 91 -180 105 -172 138 5 19 28 34 99 68 51 24 133
62 183 86 135 63 187 65 286 11z m3525 -46 c93 -48 174 -96 182 -108 12 -19
11 -24 -6 -39 -22 -18 -89 -56 -243 -135 -126 -66 -187 -68 -294 -9 -27 15
-100 53 -161 84 -162 82 -161 96 18 187 67 34 136 70 154 79 42 24 60 28 125
27 50 0 74 -9 225 -86z m-958 -96 c98 -50 173 -95 175 -104 7 -34 -7 -50 -71
-83 -37 -19 -114 -58 -172 -88 -85 -44 -116 -55 -166 -58 -59 -4 -64 -2 -219
78 -192 99 -194 100 -201 123 -10 31 21 53 190 136 198 97 181 91 242 87 40
-3 87 -22 222 -91z m-1040 -62 c81 -42 155 -81 165 -87 22 -14 33 -52 19 -69
-6 -7 -91 -53 -189 -102 -166 -84 -182 -90 -238 -90 -63 0 -80 8 -354 162 -39
21 -54 52 -37 74 16 22 333 181 381 191 57 13 110 -4 253 -79z m-2361 25 c108
-56 303 -176 306 -188 8 -30 -26 -58 -138 -110 -60 -29 -144 -68 -185 -88 -62
-30 -87 -36 -140 -36 -64 -1 -67 0 -217 89 -84 50 -155 97 -158 106 -13 40 2
50 280 177 61 27 121 52 135 55 28 5 104 2 117 -5z m5618 -119 c243 -119 243
-119 125 -186 -110 -63 -126 -61 -375 63 -231 115 -238 123 -153 169 100 55
121 63 159 59 22 -2 126 -47 244 -105z m-4204 -21 c260 -141 282 -160 243
-199 -11 -10 -98 -57 -194 -105 -164 -82 -179 -87 -240 -88 -69 -1 -59 -5
-290 127 -19 11 -47 27 -63 34 -36 19 -51 47 -37 73 12 22 319 176 389 195 59
16 114 5 192 -37z m3583 -44 c96 -46 181 -93 189 -102 33 -36 12 -57 -146
-144 -245 -135 -241 -135 -494 -6 -183 93 -204 109 -183 147 7 14 170 107 285
164 104 51 137 46 349 -59z m-1109 -30 c203 -101 286 -148 296 -165 15 -29 -7
-58 -67 -90 -27 -14 -103 -54 -168 -89 -181 -96 -191 -94 -516 83 -69 37 -90
55 -90 78 0 27 37 51 214 140 153 77 163 81 216 77 34 -3 78 -16 115 -34z
m-1024 -77 c24 -13 94 -50 154 -82 132 -69 135 -72 135 -100 0 -32 -16 -43
-205 -141 -225 -117 -242 -117 -435 -9 -36 20 -90 50 -120 67 -68 37 -90 56
-90 78 0 9 8 24 18 32 33 30 334 179 375 187 54 9 113 -2 168 -32z m3149 -22
c42 -13 404 -195 419 -210 13 -12 12 -17 -4 -35 -10 -11 -47 -36 -83 -56 -101
-57 -111 -55 -365 71 -255 126 -253 125 -141 191 91 54 113 59 174 39z m-5385
-46 c50 -28 113 -64 140 -80 28 -17 60 -35 73 -41 21 -11 27 -26 22 -57 -2
-14 -39 -50 -53 -51 -4 0 -82 -37 -174 -82 -143 -71 -175 -83 -222 -85 -31 -1
-71 5 -90 13 -56 23 -303 176 -308 191 -13 34 21 60 184 138 207 100 216 103
283 104 48 1 66 -5 145 -50z m1449 -146 c77 -42 153 -85 169 -95 31 -22 36
-57 10 -80 -10 -9 -99 -57 -198 -107 -168 -86 -184 -92 -235 -90 -64 2 -53 -3
-247 107 -153 86 -173 105 -152 143 9 17 291 166 369 195 70 26 130 10 284
-73z m3588 -9 c193 -95 228 -122 205 -158 -14 -20 -243 -159 -316 -191 -18 -8
-58 -15 -87 -15 -48 0 -74 10 -245 96 -247 125 -253 136 -120 213 36 21 98 55
136 76 39 21 75 41 80 45 18 14 79 26 123 24 33 -1 91 -25 224 -90z m-1045
-75 c98 -50 184 -96 191 -101 6 -6 12 -23 12 -39 0 -24 -9 -33 -67 -66 -38
-21 -75 -42 -85 -48 -34 -21 -75 -43 -147 -80 -110 -57 -143 -51 -358 60 -187
98 -203 109 -203 140 0 29 3 31 140 106 209 114 220 119 282 119 51 0 72 -8
235 -91z m-1092 -55 c203 -107 230 -123 242 -141 18 -27 -3 -61 -57 -90 -25
-13 -97 -52 -160 -86 -201 -109 -223 -109 -418 -1 -74 41 -136 74 -138 74 -3
0 -22 12 -44 26 -31 20 -40 33 -40 54 0 34 1 35 215 145 168 87 169 87 229 83
50 -4 82 -16 171 -64z m3319 -73 c123 -59 226 -116 229 -124 7 -19 -27 -48
-113 -95 -83 -46 -102 -42 -355 84 -263 130 -262 129 -153 197 114 71 123 70
392 -62z m-5710 66 c23 -12 133 -74 244 -137 208 -118 230 -138 205 -179 -5
-9 -97 -61 -204 -115 -185 -95 -197 -100 -256 -100 -55 1 -70 5 -144 49 -46
26 -97 55 -113 65 -17 9 -85 49 -150 89 -66 39 -123 71 -126 71 -4 0 -12 11
-18 25 -9 20 -9 30 1 46 14 25 364 200 417 209 52 10 96 2 144 -23z m1456
-139 c25 -14 100 -56 168 -93 169 -92 179 -119 66 -181 -273 -148 -317 -168
-379 -167 -65 0 -65 0 -288 128 -65 37 -123 77 -128 88 -22 40 3 59 202 161
193 98 193 98 254 93 38 -3 77 -14 105 -29z m3776 -74 c260 -129 265 -141 97
-238 -54 -32 -125 -74 -158 -94 -54 -33 -67 -37 -130 -37 -69 0 -74 2 -259 95
-188 95 -223 121 -211 159 9 28 298 198 360 211 61 13 111 -3 301 -96z m-1099
-59 c103 -52 194 -103 201 -112 6 -9 12 -27 12 -40 0 -22 -33 -45 -225 -154
-22 -12 -60 -34 -85 -48 -36 -21 -58 -26 -110 -25 -61 0 -74 5 -195 68 -271
143 -280 150 -256 195 10 18 300 188 346 203 11 3 43 6 72 7 46 1 71 -9 240
-94z m-1163 -30 c39 -20 100 -52 136 -71 160 -83 180 -97 180 -129 0 -31 -14
-41 -200 -146 -164 -93 -165 -93 -235 -93 -70 0 -70 0 -248 98 -98 54 -184
107 -192 118 -19 28 -3 60 44 86 219 120 304 164 331 172 51 14 112 2 184 -35z
m3393 -80 c222 -109 249 -128 223 -160 -6 -7 -41 -32 -79 -54 -104 -63 -110
-62 -387 74 -283 139 -279 133 -144 216 97 60 115 57 387 -76z m-5652 -33 c11
-1 76 -33 144 -72 67 -38 127 -70 132 -70 5 0 9 -4 9 -10 0 -5 4 -10 9 -10 4
0 172 -94 372 -208 1311 -751 1619 -928 1659 -950 25 -14 88 -50 140 -80 52
-30 115 -66 140 -80 25 -14 182 -104 350 -200 168 -96 325 -186 350 -200 74
-41 100 -62 106 -87 8 -34 -10 -60 -69 -98 -326 -213 -324 -212 -402 -211 -60
1 -103 18 -216 87 -19 12 -81 49 -138 82 -56 33 -110 65 -119 70 -39 23 -284
168 -507 300 -132 78 -319 188 -415 245 -96 57 -294 174 -440 260 -146 86
-344 203 -440 260 -96 56 -224 132 -285 169 -60 36 -119 71 -130 77 -119 64
-744 440 -757 454 -20 25 -13 54 18 75 55 36 359 189 388 195 28 6 43 6 101 2z
m1351 -61 c61 -28 316 -171 337 -189 9 -8 17 -25 17 -37 0 -27 -18 -43 -90
-83 -30 -16 -80 -44 -110 -61 -177 -101 -225 -117 -302 -99 -32 7 -322 163
-371 200 -10 7 -19 22 -21 33 -7 37 5 46 209 156 82 44 158 82 185 92 32 12
107 6 146 -12z m3901 -100 c166 -83 204 -106 209 -126 3 -14 4 -31 1 -39 -8
-19 -313 -207 -351 -216 -67 -15 -109 -1 -315 102 -218 110 -245 131 -218 171
12 18 219 150 322 205 11 6 49 10 85 8 60 -2 79 -10 267 -105z m-1148 -46
c105 -54 194 -102 199 -109 22 -27 23 -55 3 -73 -23 -19 -271 -172 -320 -196
-20 -10 -53 -15 -94 -13 -54 2 -76 10 -172 60 -296 157 -295 156 -295 192 0
24 34 55 100 92 19 10 75 43 123 71 182 108 197 108 456 -24z m2215 -84 c126
-62 235 -120 242 -129 17 -24 8 -35 -71 -89 -110 -75 -119 -74 -407 69 -174
86 -238 123 -243 138 -8 24 -1 31 99 93 90 56 105 52 380 -82z m-3392 49 c46
-24 106 -55 133 -70 28 -15 78 -42 111 -59 66 -35 87 -63 72 -96 -10 -22 -311
-204 -367 -221 -20 -6 -57 -10 -83 -9 -46 3 -57 8 -253 115 -27 15 -74 40
-103 56 -66 35 -92 59 -92 84 0 21 31 54 70 74 14 7 83 45 154 86 72 40 144
76 160 80 61 14 114 3 198 -40z m-849 -218 c281 -150 307 -167 307 -204 0 -27
-26 -46 -212 -153 l-173 -100 -70 0 c-70 0 -70 0 -235 94 -91 51 -179 104
-195 116 -37 27 -41 56 -12 83 26 23 333 196 374 209 57 20 119 6 216 -45z
m3919 -71 c218 -108 247 -130 227 -173 -10 -22 -304 -218 -338 -226 -9 -2 -40
-4 -68 -4 -48 0 -73 10 -265 107 -117 59 -218 115 -225 124 -18 23 -16 56 5
73 24 22 271 178 307 194 18 9 54 13 90 11 53 -2 84 -14 267 -106z m-1237 -13
c333 -169 334 -170 167 -275 -252 -157 -249 -155 -313 -156 -64 -1 -59 -3
-396 175 -140 73 -137 102 21 198 59 36 120 73 134 82 84 53 143 69 207 56 22
-5 103 -41 180 -80z m2025 24 c14 -5 127 -59 252 -120 164 -80 228 -116 233
-131 9 -28 8 -29 -76 -86 -110 -75 -111 -75 -414 76 -297 147 -294 144 -180
221 87 58 122 65 185 40z m-3120 -114 c267 -140 280 -148 280 -184 0 -31 -20
-48 -147 -124 -59 -36 -126 -76 -148 -90 -62 -41 -88 -49 -146 -46 -59 3 -97
19 -234 96 -49 27 -121 67 -159 87 -74 40 -96 69 -79 106 12 24 312 205 371
223 67 20 118 7 262 -68z m-4136 -183 c138 -83 379 -230 536 -325 157 -95 420
-255 585 -355 165 -100 319 -194 343 -209 24 -15 58 -35 75 -45 18 -10 127
-76 242 -146 116 -70 230 -140 255 -155 100 -60 1022 -620 1165 -708 50 -30
85 -81 85 -123 0 -71 4 -68 -605 -466 -71 -47 -234 -153 -361 -236 -127 -84
-313 -206 -414 -272 -102 -66 -267 -174 -367 -240 -101 -66 -243 -159 -315
-206 -73 -48 -227 -149 -343 -225 -115 -75 -244 -159 -285 -186 -41 -27 -100
-56 -130 -65 -109 -32 -235 -19 -315 34 -35 23 -713 514 -740 536 -5 4 -99 73
-208 152 -109 79 -208 151 -220 159 -12 9 -260 190 -552 401 -538 391 -582
423 -715 521 -41 31 -124 91 -185 135 -144 104 -506 366 -525 382 -9 7 -38 28
-65 46 -28 19 -52 37 -55 41 -3 3 -25 19 -50 35 -77 52 -120 101 -120 138 0
31 19 68 50 99 18 17 74 49 255 143 131 68 261 136 455 237 58 31 159 83 225
118 66 34 161 84 210 110 50 26 149 78 220 115 220 114 549 286 680 355 96 51
254 133 480 250 77 40 145 76 150 80 20 14 81 32 130 37 28 3 51 6 52 8 2 1
31 -3 65 -8 54 -9 93 -29 312 -162z m3198 0 c29 -15 94 -50 143 -78 50 -28
112 -62 139 -76 27 -14 58 -38 69 -53 21 -28 21 -28 1 -54 -10 -14 -98 -74
-194 -132 l-175 -106 -70 0 c-70 -1 -81 3 -167 52 -53 31 -94 54 -163 92 -125
69 -155 93 -155 125 0 12 8 29 18 37 18 16 151 98 159 98 2 0 27 15 56 33 29
18 80 47 114 64 80 40 147 39 225 -2z m4042 -97 c243 -120 279 -148 248 -194
-8 -12 -285 -206 -317 -221 -11 -6 -45 -11 -76 -12 -54 -2 -67 3 -275 109
-121 60 -227 116 -236 123 -23 18 -32 59 -16 78 20 25 288 201 328 215 73 26
120 13 344 -98z m-1462 78 c20 -3 53 -15 73 -26 20 -11 107 -56 193 -99 86
-44 167 -90 180 -104 42 -45 26 -64 -141 -174 -192 -127 -189 -125 -258 -126
-63 -1 -88 10 -354 151 -218 116 -218 122 12 269 109 70 175 106 205 112 23 4
45 7 48 5 3 -1 22 -5 42 -8z m2199 -35 c123 -53 476 -230 487 -244 23 -27 10
-49 -63 -101 -109 -79 -115 -78 -420 73 -137 67 -255 130 -262 139 -21 28 -11
43 68 96 86 59 123 66 190 37z m-3187 -110 c39 -21 129 -69 200 -107 138 -74
166 -99 148 -138 -12 -28 -323 -230 -373 -243 -77 -21 -124 -7 -291 85 -32 18
-84 46 -115 63 -148 80 -172 104 -148 149 7 13 29 33 48 44 20 12 96 58 169
102 73 45 142 84 153 87 51 14 138 -3 209 -42z m-790 -278 c78 -42 157 -85
176 -96 19 -11 48 -27 63 -35 15 -7 35 -25 43 -38 32 -48 16 -65 -168 -181
-191 -120 -196 -123 -254 -129 -62 -6 -105 12 -312 130 -207 119 -229 139
-195 184 10 13 81 62 158 110 204 125 219 132 288 132 56 0 70 -5 201 -77z
m4062 -64 c235 -117 273 -145 260 -187 -7 -20 -251 -203 -317 -237 -25 -13
-49 -16 -98 -13 -60 5 -86 15 -276 112 -115 59 -222 118 -237 132 -34 31 -36
64 -5 90 34 31 126 94 136 94 5 0 11 4 13 8 4 11 138 102 162 112 12 4 46 7
78 5 50 -2 83 -15 284 -116z m-1408 49 c367 -187 349 -176 358 -222 5 -29 -9
-44 -94 -102 -31 -21 -95 -66 -142 -98 -96 -67 -160 -88 -225 -74 -34 8 -274
126 -415 206 -51 28 -79 59 -80 84 0 17 35 61 55 69 12 5 218 142 225 150 3 3
25 15 50 28 72 36 137 26 268 -41z m2298 -68 c137 -67 257 -129 267 -137 29
-27 20 -50 -35 -94 -129 -101 -120 -103 -444 56 -142 70 -267 134 -276 142
-35 31 -19 54 87 125 86 58 99 55 401 -92z m-3386 -54 c74 -38 164 -84 200
-102 79 -40 129 -81 135 -110 2 -14 -6 -31 -23 -47 -52 -48 -332 -226 -367
-233 -53 -10 -124 4 -180 36 -53 30 -112 62 -240 130 -108 59 -135 78 -146
107 -13 35 3 58 69 100 31 20 102 66 157 102 178 116 203 117 395 17z m4137
-311 c129 -63 237 -115 239 -115 3 0 22 -11 44 -25 61 -38 55 -62 -31 -129
-70 -55 -86 -61 -144 -57 -31 3 -548 251 -577 278 -30 27 -21 51 40 99 76 61
108 75 155 69 21 -3 145 -57 274 -120z m-5075 98 c23 -9 83 -40 133 -68 49
-28 125 -70 169 -94 112 -60 115 -62 126 -94 7 -22 6 -34 -4 -49 -11 -15 -195
-147 -224 -160 -4 -2 -33 -21 -65 -42 -73 -49 -134 -66 -196 -53 -58 12 -446
230 -468 263 -31 48 -15 67 157 176 139 89 177 112 205 124 42 18 117 17 167
-3z m2864 -96 c261 -132 265 -134 290 -156 36 -32 41 -68 13 -96 -45 -43 -307
-226 -336 -234 -66 -19 -122 -5 -263 68 -335 172 -360 189 -360 234 0 27 21
46 145 132 39 27 90 63 115 80 78 55 99 63 165 60 55 -2 78 -11 231 -88z
m1416 -36 c124 -62 238 -124 252 -138 33 -33 33 -63 -1 -95 -51 -46 -281 -216
-305 -224 -13 -4 -47 -7 -77 -6 -49 1 -81 14 -285 117 -270 136 -316 174 -273
227 19 24 295 222 320 230 12 4 49 6 82 4 54 -2 84 -14 287 -115z m-2554 -72
c311 -161 332 -175 332 -222 0 -30 -7 -38 -67 -80 -29 -21 -77 -53 -105 -74
-29 -20 -82 -57 -118 -82 -63 -45 -66 -46 -140 -46 l-75 0 -160 87 c-88 47
-179 97 -202 109 -73 38 -113 77 -113 108 0 34 2 36 180 156 172 116 189 124
258 125 47 0 70 -9 210 -81z m4122 -270 c117 -57 245 -120 284 -139 42 -21 76
-45 83 -60 13 -24 10 -28 -44 -78 -77 -70 -107 -85 -157 -79 -59 7 -613 281
-621 307 -11 34 3 53 78 109 67 50 75 53 118 49 32 -3 110 -36 259 -109z
m-4985 4 c50 -28 106 -59 125 -70 19 -11 75 -41 123 -67 86 -47 114 -73 122
-114 5 -30 -25 -55 -261 -214 -121 -82 -162 -95 -240 -78 -46 10 -433 224
-473 261 -28 26 -27 70 2 96 28 26 321 221 350 234 12 5 54 7 92 6 62 -4 80
-9 160 -54z m4003 41 c26 -8 254 -120 507 -247 417 -210 462 -235 477 -266 9
-18 14 -40 11 -47 -3 -8 -55 -56 -117 -106 -61 -51 -122 -103 -136 -115 -45
-42 -88 -56 -155 -51 -66 5 -59 2 -540 248 -115 59 -270 138 -343 175 -163 83
-211 134 -169 177 42 42 277 219 309 233 44 19 99 19 156 -1z m-1128 -116
c229 -117 276 -147 280 -178 6 -39 -8 -55 -125 -145 -213 -164 -215 -165 -295
-160 -52 3 -82 11 -122 33 -29 16 -120 64 -203 107 -82 43 -168 90 -190 104
-48 32 -71 72 -56 100 11 20 274 218 327 246 18 10 52 15 89 14 56 -1 77 -10
295 -121z m-4116 -3 c28 -13 74 -37 101 -53 65 -38 107 -61 180 -102 33 -18
72 -41 87 -51 14 -11 28 -19 31 -19 11 0 183 -104 205 -123 22 -20 28 -50 16
-81 -6 -16 -309 -227 -371 -260 -40 -20 -132 -21 -178 -1 -49 20 -595 343
-621 367 -28 25 -35 62 -18 87 19 27 366 248 406 259 48 13 105 5 162 -23z
m2841 -49 c50 -25 142 -73 205 -107 63 -34 126 -68 141 -75 33 -17 65 -53 71
-80 7 -29 -13 -51 -122 -131 -52 -38 -122 -89 -154 -113 -128 -94 -174 -88
-426 52 -25 14 -92 51 -150 82 -140 76 -175 119 -137 166 22 28 318 233 355
245 58 20 119 9 217 -39z m-910 -265 c32 -1 457 -238 488 -272 33 -36 35 -70
5 -98 -41 -37 -328 -242 -354 -251 -34 -13 -116 -13 -151 1 -60 22 -455 253
-473 277 -39 49 -22 80 85 153 27 19 54 38 60 42 5 4 52 37 102 72 95 66 135
83 188 79 16 -1 39 -3 50 -3z m3080 -141 c88 -45 252 -130 365 -188 244 -125
269 -139 294 -161 29 -25 38 -59 24 -87 -7 -13 -139 -127 -293 -254 -154 -128
-289 -239 -300 -248 -11 -10 -58 -49 -105 -87 -47 -38 -94 -77 -105 -87 -11
-9 -33 -28 -49 -42 -58 -48 -153 -53 -239 -12 -48 23 -147 76 -257 138 -25 13
-72 40 -105 58 -33 18 -79 43 -103 56 -97 54 -127 88 -115 133 4 14 101 99
257 223 138 110 251 202 251 205 0 2 -29 20 -65 39 -95 49 -131 103 -97 146 6
9 68 59 137 112 69 53 133 104 143 112 34 28 61 34 132 30 65 -3 82 -9 230
-86z m-1268 -71 c76 -40 168 -89 205 -110 37 -20 75 -40 86 -43 10 -4 33 -20
50 -37 31 -31 41 -70 24 -95 -16 -24 -335 -264 -359 -270 -13 -4 -51 -4 -84
-1 -60 5 -51 1 -429 207 -107 58 -128 75 -141 109 -15 39 -1 59 79 119 43 31
82 60 87 64 6 5 47 36 92 69 134 98 182 97 390 -12z m-2771 -24 c13 -8 38 -23
57 -34 217 -122 340 -196 352 -214 22 -31 18 -70 -7 -94 -13 -12 -77 -59 -143
-106 -66 -47 -138 -99 -160 -115 -83 -61 -178 -65 -275 -10 -30 17 -64 36 -75
42 -89 49 -314 188 -327 203 -30 33 -32 68 -6 96 13 14 103 79 200 144 149
100 184 119 220 122 23 1 44 4 46 5 5 6 95 -23 118 -39z m1855 -249 c92 -48
194 -103 272 -147 38 -22 70 -39 72 -39 2 0 28 -14 57 -31 29 -18 82 -47 118
-67 36 -19 171 -93 300 -165 129 -71 260 -143 290 -159 30 -17 69 -38 85 -48
17 -9 62 -34 100 -55 164 -89 301 -168 319 -183 25 -23 37 -58 30 -88 -4 -15
-46 -57 -108 -107 -131 -107 -141 -116 -185 -154 -20 -18 -54 -38 -76 -46 -85
-29 -142 -11 -360 113 -104 59 -209 118 -232 131 -23 13 -122 70 -220 125 -98
56 -194 111 -213 121 -19 11 -59 34 -88 52 -29 17 -55 31 -57 31 -2 0 -36 19
-77 43 -40 24 -94 55 -119 69 -254 142 -438 251 -456 270 -20 21 -27 44 -24
75 2 18 33 45 145 126 54 40 115 84 135 99 73 55 104 67 167 68 51 0 72 -6
125 -34z m-1337 -364 c11 -10 159 -96 321 -187 225 -128 242 -146 182 -202
-55 -51 -143 -113 -175 -122 -39 -12 -102 2 -150 33 -20 13 -137 83 -259 155
-122 72 -227 141 -234 152 -9 18 -7 26 8 48 22 28 120 103 168 126 32 16 117
14 139 -3z m1065 -296 c53 -27 77 -41 204 -115 49 -28 90 -51 92 -51 8 0 143
-85 162 -103 32 -29 40 -82 17 -109 -33 -36 -337 -270 -370 -284 -62 -26 -137
-19 -209 20 -22 12 -133 77 -246 144 -283 169 -291 185 -143 302 88 69 265
198 292 212 47 23 140 16 201 -16z m726 -746 c127 -73 244 -141 260 -151 17
-10 46 -27 66 -38 23 -13 41 -32 48 -52 11 -31 9 -34 -34 -75 -25 -23 -71 -61
-101 -84 -51 -40 -57 -42 -107 -38 -42 3 -74 17 -172 75 -497 291 -485 283
-485 327 0 22 7 30 90 97 138 111 139 111 435 -61z"/>
<path d="M40 8898 c0 -38 55 -236 73 -263 13 -18 113 -101 223 -184 109 -83
204 -154 209 -158 6 -5 240 -182 520 -393 281 -211 609 -459 730 -550 121 -92
321 -242 445 -335 124 -93 232 -175 240 -182 8 -7 94 -71 190 -143 96 -72 182
-137 190 -143 8 -7 107 -82 220 -167 113 -84 333 -250 490 -369 1330 -1003
1529 -1153 1625 -1225 50 -37 103 -77 119 -89 39 -30 99 -75 111 -85 6 -4 118
-89 250 -188 132 -100 313 -237 403 -305 90 -68 176 -133 192 -144 16 -11 120
-89 232 -174 112 -85 320 -242 463 -350 143 -107 265 -199 270 -204 6 -5 100
-76 210 -158 110 -83 213 -160 229 -172 96 -72 182 -137 191 -145 6 -4 46 -35
90 -67 44 -33 86 -65 95 -72 8 -7 119 -90 245 -185 261 -197 874 -659 1290
-973 1015 -766 1094 -824 1176 -863 150 -72 241 -93 429 -97 159 -4 285 20
410 77 100 47 126 67 455 357 17 15 197 172 400 350 204 178 399 349 435 381
36 32 103 91 150 131 47 41 90 78 96 84 6 5 41 37 79 70 38 33 112 98 164 144
53 46 110 95 126 110 112 97 262 228 276 241 20 20 61 55 194 170 61 52 112
98 115 101 3 3 64 57 135 119 72 62 159 139 195 170 36 31 88 77 115 101 100
87 188 164 199 174 6 6 119 105 251 220 132 115 254 221 270 236 17 15 145
128 285 250 140 122 261 228 268 235 7 7 34 30 60 51 26 21 54 45 62 54 8 9
49 44 90 80 41 35 77 67 80 70 3 3 41 37 85 75 44 38 96 83 115 100 30 27 511
448 684 598 32 28 64 56 70 62 6 6 52 46 101 89 50 43 101 88 115 101 25 22
195 171 239 209 13 11 29 25 35 30 6 6 83 73 171 150 88 77 176 154 195 171
19 17 112 98 205 179 94 82 172 151 175 154 3 4 21 19 40 35 19 15 75 64 123
109 86 78 108 111 126 187 9 35 36 135 47 175 3 11 -6 4 -20 -16 -14 -20 -69
-74 -123 -120 -54 -46 -114 -98 -133 -115 -33 -30 -311 -271 -430 -374 -30
-26 -217 -188 -415 -360 -198 -172 -385 -334 -415 -360 -521 -452 -752 -652
-935 -811 -66 -58 -221 -192 -345 -299 -255 -220 -283 -245 -321 -280 -15 -14
-42 -36 -59 -50 -18 -14 -40 -32 -49 -41 -9 -9 -52 -47 -96 -84 -44 -38 -82
-72 -85 -75 -3 -3 -36 -32 -75 -65 -38 -32 -77 -66 -86 -75 -9 -8 -25 -22 -35
-31 -52 -43 -260 -223 -264 -228 -3 -4 -32 -29 -65 -56 -32 -28 -66 -57 -75
-65 -9 -8 -30 -26 -46 -40 -103 -89 -787 -681 -824 -714 -57 -51 -96 -84 -185
-160 -38 -32 -75 -64 -80 -70 -6 -6 -39 -36 -75 -66 -70 -60 -116 -99 -134
-115 -15 -14 -166 -145 -195 -170 -14 -11 -32 -27 -41 -35 -8 -8 -63 -55 -120
-105 -58 -49 -112 -96 -121 -105 -9 -8 -27 -24 -40 -35 -70 -58 -235 -201
-244 -211 -5 -6 -57 -51 -115 -100 -58 -49 -107 -91 -110 -94 -3 -3 -54 -48
-115 -100 -60 -52 -112 -97 -115 -100 -3 -3 -68 -60 -145 -126 -189 -162 -256
-203 -406 -244 -98 -26 -135 -31 -259 -31 -127 -1 -181 7 -304 43 -154 44
-192 68 -607 377 -178 133 -335 250 -348 259 -13 9 -28 22 -35 27 -6 6 -27 22
-46 35 -19 13 -39 28 -45 33 -5 5 -125 94 -265 198 -140 105 -398 297 -573
427 -175 130 -503 375 -730 544 -227 169 -416 311 -422 315 -5 5 -64 49 -130
98 -235 175 -560 418 -590 441 -16 12 -105 78 -196 146 -92 68 -179 133 -195
145 -16 12 -213 159 -439 327 -225 168 -421 314 -435 325 -14 10 -153 114
-310 231 -157 117 -313 233 -346 259 -34 25 -74 55 -89 66 -15 11 -132 98
-259 193 -127 95 -242 181 -254 190 -13 9 -42 31 -65 48 -23 17 -285 213 -582
434 -297 221 -586 437 -641 479 -56 42 -114 85 -129 96 -23 17 -708 528 -785
585 -14 11 -225 168 -470 351 -893 666 -1045 780 -1060 792 -8 6 -76 57 -150
112 -434 319 -619 461 -652 497 -21 22 -38 38 -38 36z"/>
</g>
</svg>
